<svg xmlns="http://www.w3.org/2000/svg">
  <defs>
    <g id="resistor" transform="translate(-1.1942 -1.6895)">
      <path d="m101.19 22.797h-20l-5.4902 19.608-9.8039-39.216-9.8039 39.216-9.8039-39.216-9.8039 39.216-9.8039-39.216-5.4902 19.608h-20" style="fill:none;stroke-linejoin:round;stroke-miterlimit:4.3;stroke-width:3;stroke:#000000"/>
    </g>
    <g id="capacitor" transform="translate(-.50179 30.046)">
      <g transform="matrix(3.7795 0 0 3.7795 -4.4982 -130.04)">
        <path d="m1.3229 32.152 11.906 1e-5" style="fill:none;stroke-linejoin:round;stroke-width:.79375;stroke:#000000"/>
        <path d="m13.229 26.86v10.583" style="fill:none;stroke-linecap:round;stroke-linejoin:round;stroke-width:.79375;stroke:#000000"/>
        <path d="m15.875 26.86v10.583" style="fill:none;stroke-linecap:round;stroke-linejoin:round;stroke-width:.79375;stroke:#000000"/>
        <path d="m27.781 32.152-11.906 1e-5" style="fill:none;stroke-linejoin:round;stroke-width:.79375;stroke:#000000"/>
      </g>
    </g>
    <g id="inductor" transform="translate(-.30792 9.2296)">
      <g transform="matrix(3.7795 0 0 3.7795 -4.6921 -173.25)">
        <path d="m6.6146 48.027c-0.2176-0.44635-0.31966-0.94843-0.2936-1.4443 0.026058-0.49588 0.18018-0.98449 0.44336-1.4056 0.26318-0.42109 0.63485-0.77373 1.0692-1.0145 0.43432-0.24072 0.93035-0.36899 1.4269-0.36899 0.49656 0 0.99259 0.12827 1.4269 0.36899 0.43432 0.24072 0.80598 0.59337 1.0692 1.0145 0.26318 0.42109 0.4173 0.9097 0.44336 1.4056 0.02606 0.49588-0.076 0.99796-0.2936 1.4443" style="fill:none;stroke-linecap:round;stroke-width:.79375;stroke:#000000"/>
        <path d="m1.3229 48.027h5.2917" style="fill:none;stroke-linejoin:round;stroke-width:.79375;stroke:#000000"/>
        <path d="m27.781 48.027h-5.2917" style="fill:none;stroke-linejoin:round;stroke-width:.79375;stroke:#000000"/>
        <path d="m11.906 48.027c-0.2176-0.44635-0.31966-0.94843-0.2936-1.4443 0.02606-0.49588 0.18018-0.9845 0.44336-1.4056s0.63485-0.77373 1.0692-1.0145c0.43432-0.24072 0.93034-0.36899 1.4269-0.36899s0.99259 0.12827 1.4269 0.36899c0.43432 0.24072 0.80598 0.59337 1.0692 1.0145 0.26318 0.42109 0.4173 0.9097 0.44336 1.4056 0.02606 0.49588-0.076 0.99796-0.2936 1.4443" style="fill:none;stroke-linecap:round;stroke-width:.79375;stroke:#000000"/>
        <path d="m17.198 48.027c-0.2176-0.44635-0.31966-0.94843-0.2936-1.4443 0.02606-0.49588 0.18018-0.9845 0.44336-1.4056s0.63485-0.77373 1.0692-1.0145c0.43432-0.24072 0.93034-0.36899 1.4269-0.36899s0.99259 0.12827 1.4269 0.36899c0.43432 0.24072 0.80598 0.59337 1.0692 1.0145 0.26318 0.42109 0.4173 0.9097 0.44336 1.4056 0.02606 0.49588-0.076 0.99796-0.2936 1.4443" style="fill:none;stroke-linecap:round;stroke-width:.79375;stroke:#000000"/>
      </g>
    </g>
    <g id="bjtnpn" transform="translate(-9.7827 4.1302)">
      <g transform="matrix(3.7795 0 0 3.7795 -150.22 -25.649)">
        <path d="m42.333 16.277h5.8208" style="fill:none;stroke-linejoin:round;stroke-width:.79375;stroke:#000000"/>
        <path d="m48.154 11.514v9.525" style="fill:none;stroke-linecap:round;stroke-linejoin:round;stroke-width:.79375;stroke:#000000"/>
        <path d="m48.154 13.631 6.35-3.175 1e-6 -4.7625" style="fill:none;stroke-linejoin:round;stroke-width:.79375;stroke:#000000"/>
        <path d="m48.154 18.923 6.35 3.175 1e-6 4.7625" style="fill:none;stroke-linejoin:round;stroke-width:.79375;stroke:#000000"/>
        <path d="m53.436 21.555-1.8351-2.6184-1.4391 2.6045z" style="fill:#000000;stroke-linejoin:round;stroke-width:.21167;stroke:#000000"/>
      </g>
    </g>
    <g id="bjtpnp" transform="translate(-10.681 65.21)">
      <g transform="matrix(3.7795 0 0 3.7795 -259.32 -86.729)">
        <path d="m71.438 16.277h5.8208" style="fill:none;stroke-linejoin:round;stroke-width:.79375;stroke:#000000"/>
        <path d="m77.258 11.514v9.525" style="fill:none;stroke-linecap:round;stroke-linejoin:round;stroke-width:.79375;stroke:#000000"/>
        <path d="m77.258 14.16 6.35-3.175v-2.6458l1e-6 -2.6458" style="fill:none;stroke-linejoin:round;stroke-width:.79375;stroke:#000000"/>
        <path d="m77.258 18.393 6.35 3.175 1e-6 5.2917" style="fill:none;stroke-linejoin:round;stroke-width:.79375;stroke:#000000"/>
        <path d="m79.572 13.024 1.8351-2.6184 1.4391 2.6045z" style="fill:#000000;stroke-linejoin:round;stroke-width:.21167;stroke:#000000"/>
      </g>
    </g>
    <g id="controlledcurrentsource" transform="translate(-6.4977 68.556)">
      <g transform="matrix(3.7795 0 0 3.7795 -258.5 -310.07)">
        <path d="m82.021 69.193v-5.2917" style="fill:none;stroke-linejoin:round;stroke-width:.79375;stroke:#000000"/>
        <path d="m82.021 82.423v5.2917" style="fill:none;stroke-linejoin:round;stroke-width:.79375;stroke:#000000"/>
        <path d="m82.021 79.777v-6.0854" style="fill:none;stroke-linecap:round;stroke-linejoin:round;stroke-width:.79375;stroke:#000000"/>
        <path d="m81.227 74.485 0.79376-2.1167 0.79375 2.1167z" style="fill:#000000;stroke-width:.79375;stroke:#000000"/>
        <path d="m82.021 69.193-6.6146 6.6146 6.6146 6.6146 6.6146-6.6146z" style="fill:none;stroke-linejoin:round;stroke-width:.79375;stroke:#000000"/>
        <path d="m75.406 75.808h-5.2917" style="fill:none;stroke-linejoin:round;stroke-width:.79375;stroke:#000000"/>
      </g>
    </g>
    <g id="controlledvoltagesource" transform="translate(-5.8939 68.701)">
      <g transform="matrix(3.7795 0 0 3.7795 -149.11 -310.22)">
        <path d="m52.917 69.193v-5.2917" style="fill:none;stroke-linejoin:round;stroke-width:.79375;stroke:#000000"/>
        <path d="m52.917 82.423v5.2917" style="fill:none;stroke-linejoin:round;stroke-width:.79375;stroke:#000000"/>
        <path d="m51.004 74.282h3.8263" style="fill:none;stroke-linejoin:round;stroke-width:.79375;stroke:#000000"/>
        <path d="m52.917 72.368v3.8263" style="fill:none;stroke-linejoin:round;stroke-width:.79375;stroke:#000000"/>
        <path d="m51.004 78.108h3.8263" style="fill:none;stroke-linejoin:round;stroke-width:.79375;stroke:#000000"/>
        <path d="m52.917 69.193-6.6146 6.6146 6.6146 6.6146 6.6146-6.6146z" style="fill:none;stroke-linejoin:round;stroke-width:.79375;stroke:#000000"/>
        <path d="m46.302 75.808h-5.2917" style="fill:none;stroke-linejoin:round;stroke-width:.79375;stroke:#000000"/>
      </g>
    </g>
    <g id="currentsource" transform="translate(-6.4451 4.5087)">
      <g transform="matrix(3.7795 0 0 3.7795 -277.26 -126.03)">
        <path d="m82.021 37.443v-5.2917" style="fill:none;stroke-linejoin:round;stroke-width:.79375;stroke:#000000"/>
        <path d="m82.021 50.673v5.2917" style="fill:none;stroke-linejoin:round;stroke-width:.79375;stroke:#000000"/>
        <path d="m82.021 48.556v-6.8792" style="fill:none;stroke-linecap:round;stroke-linejoin:round;stroke-width:.79375;stroke:#000000"/>
        <path d="m81.227 42.206 0.79375-2.1167 0.79375 2.1167z" style="fill:#000000;stroke-width:.79375;stroke:#000000"/>
        <circle cx="82.023" cy="44.092" r="6.619" style="fill:none;stroke-linecap:round;stroke-width:.68343;stroke:#000000"/>
      </g>
    </g>
    <g id="diode" transform="translate(1.64 31.418)">
      <g transform="matrix(3.7795 0 0 3.7795 -6.64 -251.42)">
        <path d="m1.3229 63.902h8.9958" style="fill:none;stroke-linejoin:round;stroke-miterlimit:4.06;stroke-width:.79375;stroke:#000000"/>
        <path d="m10.319 58.61v10.583l8.4667-5.2917z" style="fill:none;stroke-linecap:round;stroke-linejoin:round;stroke-miterlimit:4.06;stroke-width:.79375;stroke:#000000"/>
        <path d="m18.785 58.61v10.583" style="fill:none;stroke-linecap:round;stroke-linejoin:round;stroke-miterlimit:4.06;stroke-width:.79375;stroke:#000000"/>
        <path d="m18.785 63.902h8.9958" style="fill:none;stroke-linejoin:round;stroke-miterlimit:4.06;stroke-width:.79375;stroke:#000000"/>
      </g>
    </g>
    <g id="port" transform="translate(-11.626 14.872)">
      <g transform="matrix(3.7796 0 0 3.7796 -91.988 -321.4)">
        <circle cx="29.098" cy="86.418" r="1.3427" style="fill:none;stroke-linecap:round;stroke-width:.68343;stroke:#000000"/>
        <path d="m29.104 85.068v-3.9688" style="fill:none;stroke-linejoin:round;stroke-width:.79375;stroke:#000000"/>
      </g>
    </g>
    <g id="voltagesource" transform="translate(-9.8689 71.484)">
      <g transform="matrix(3.7795 0 0 3.7795 -163.82 -193)">
        <circle cx="52.916" cy="44.064" r="6.619" style="fill:none;stroke-linecap:round;stroke-width:.68343;stroke:#000000"/>
        <path d="m52.917 37.443v-5.2917" style="fill:none;stroke-linejoin:round;stroke-width:.79375;stroke:#000000"/>
        <path d="m52.917 50.673v5.2917" style="fill:none;stroke-linejoin:round;stroke-width:.79375;stroke:#000000"/>
        <path d="m51.004 42.532h3.8263" style="fill:none;stroke-linejoin:round;stroke-width:.79375;stroke:#000000"/>
        <path d="m52.917 40.618v3.8263" style="fill:none;stroke-linejoin:round;stroke-width:.79375;stroke:#000000"/>
        <path d="m51.004 46.358h3.8263" style="fill:none;stroke-linejoin:round;stroke-width:.79375;stroke:#000000"/>
      </g>
    </g>
  </defs>
</svg>
