<?xml version="1.0" encoding="UTF-8"?>
<svg width="100" height="19.019" version="1.1" viewBox="0 0 100 19.019207" xmlns="http://www.w3.org/2000/svg">
  <g transform="translate(-.30792 9.2296)">
    <g transform="matrix(3.7795 0 0 3.7795 -4.6921 -173.25)">
      <path d="m6.6146 48.027c-0.2176-0.44635-0.31966-0.94843-0.2936-1.4443 0.026058-0.49588 0.18018-0.98449 0.44336-1.4056 0.26318-0.42109 0.63485-0.77373 1.0692-1.0145 0.43432-0.24072 0.93035-0.36899 1.4269-0.36899 0.49656 0 0.99259 0.12827 1.4269 0.36899 0.43432 0.24072 0.80598 0.59337 1.0692 1.0145 0.26318 0.42109 0.4173 0.9097 0.44336 1.4056 0.02606 0.49588-0.076 0.99796-0.2936 1.4443" style="fill:none;stroke-linecap:round;stroke-width:.79375;stroke:#000000"/>
      <path d="m1.3229 48.027h5.2917" style="fill:none;stroke-linejoin:round;stroke-width:.79375;stroke:#000000"/>
      <path d="m27.781 48.027h-5.2917" style="fill:none;stroke-linejoin:round;stroke-width:.79375;stroke:#000000"/>
      <path d="m11.906 48.027c-0.2176-0.44635-0.31966-0.94843-0.2936-1.4443 0.02606-0.49588 0.18018-0.9845 0.44336-1.4056s0.63485-0.77373 1.0692-1.0145c0.43432-0.24072 0.93034-0.36899 1.4269-0.36899s0.99259 0.12827 1.4269 0.36899c0.43432 0.24072 0.80598 0.59337 1.0692 1.0145 0.26318 0.42109 0.4173 0.9097 0.44336 1.4056 0.02606 0.49588-0.076 0.99796-0.2936 1.4443" style="fill:none;stroke-linecap:round;stroke-width:.79375;stroke:#000000"/>
      <path d="m17.198 48.027c-0.2176-0.44635-0.31966-0.94843-0.2936-1.4443 0.02606-0.49588 0.18018-0.9845 0.44336-1.4056s0.63485-0.77373 1.0692-1.0145c0.43432-0.24072 0.93034-0.36899 1.4269-0.36899s0.99259 0.12827 1.4269 0.36899c0.43432 0.24072 0.80598 0.59337 1.0692 1.0145 0.26318 0.42109 0.4173 0.9097 0.44336 1.4056 0.02606 0.49588-0.076 0.99796-0.2936 1.4443" style="fill:none;stroke-linecap:round;stroke-width:.79375;stroke:#000000"/>
    </g>
  </g>
</svg>
